# xmcd CD database file
#
# Track frame offsets:
#	150
#	20752
#	43634
#	76518
#	96953
#	120463
#	144268
#	172845
#	193997
#	221752
#	243517
#	269977
#
# Disc length: 3793 seconds
#
# Revision: 0
# Processed by: cddbd v1.5.2PL0 Copyright (c) Steve Scherf et al.
# Submitted via: CDex 1.51
#
DISCID=a90ecf0c
DTITLE=Adam Granger and John Plomondon - Swing Guitars Live!
DYEAR=2002
DGENRE=Jazz
TTITLE0=My Heart Belongs to Daddy
TTITLE1=Ain't Misbehavin'
TTITLE2=Stormy Weather
TTITLE3=Oh, Lady Be Good
TTITLE4=The More I See You
TTITLE5=As Time Goes By
TTITLE6=Makin' Whoopee
TTITLE7=Spanish Eyes
TTITLE8=Sentimental Journey
TTITLE9=Besame Mucho
TTITLE10=I Can't Give You Anything But Love
TTITLE11=The Cuckoo Waltz
EXTD=YEAR: 2002
EXTT0=
EXTT1=
EXTT2=
EXTT3=
EXTT4=
EXTT5=
EXTT6=
EXTT7=
EXTT8=
EXTT9=
EXTT10=
EXTT11=
PLAYORDER=
